<svg width="30" height="30" viewBox="0 0 30 30" fill="none" xmlns="http://www.w3.org/2000/svg">
<path fill-rule="evenodd" clip-rule="evenodd" d="M18.5925 3.82951C18.4974 3.63906 18.3629 3.47103 18.1979 3.33658C18.0329 3.20213 17.8411 3.10435 17.6354 3.04972C17.4297 2.9951 17.2147 2.98488 17.0047 3.01976C16.7947 3.05464 16.5945 3.13381 16.4175 3.25201C15.9 3.59701 15.4965 4.08901 15.1845 4.57201C14.8635 5.06701 14.58 5.64151 14.3295 6.24601C13.8285 7.45201 13.4085 8.89801 13.0695 10.347C12.6595 12.1177 12.3525 13.9107 12.15 15.717C11.5397 15.3236 11.0493 14.7699 10.7325 14.1165C10.2405 13.0965 10.1355 11.8155 10.1355 10.1355C10.1354 9.83888 10.0474 9.54893 9.88261 9.30232C9.71778 9.0557 9.48354 8.86349 9.20949 8.74999C8.93544 8.63648 8.63389 8.60678 8.34296 8.66463C8.05203 8.72248 7.78479 8.86529 7.57501 9.07501C6.59875 10.0492 5.82455 11.2066 5.29685 12.4808C4.76915 13.755 4.49835 15.1209 4.50001 16.5C4.50013 18.2267 4.92608 19.9267 5.74012 21.4494C6.55415 22.9722 7.73116 24.2707 9.16688 25.2299C10.6026 26.1892 12.2527 26.7795 13.9711 26.9487C15.6895 27.1179 17.423 26.8607 19.0183 26.1999C20.6135 25.5392 22.0212 24.4952 23.1166 23.1604C24.212 21.8257 24.9613 20.2414 25.2982 18.5479C25.6351 16.8544 25.5492 15.104 25.048 13.4516C24.5468 11.7993 23.6459 10.296 22.425 9.07501C21.537 8.18851 20.955 7.59751 20.403 6.87451C19.8585 6.16051 19.317 5.28001 18.5925 3.82951ZM18.18 22.68C17.5507 23.3085 16.7492 23.7365 15.8768 23.9098C15.0044 24.0831 14.1002 23.994 13.2785 23.6537C12.4567 23.3135 11.7542 22.7373 11.2597 21.998C10.7651 21.2587 10.5008 20.3894 10.5 19.5C10.5 19.5 11.8185 20.25 14.25 20.25C14.25 18.75 15 14.25 16.125 13.5C16.875 15 17.304 15.4395 18.1815 16.3185C18.6001 16.7358 18.932 17.2317 19.1583 17.7777C19.3846 18.3237 19.5007 18.909 19.5 19.5C19.5007 20.091 19.3846 20.6764 19.1583 21.2224C18.932 21.7683 18.6001 22.2642 18.1815 22.6815L18.18 22.68Z" fill="#F1F1F1"/>
</svg>
