<svg width="30" height="30" viewBox="0 0 30 30" fill="none" xmlns="http://www.w3.org/2000/svg">
<path d="M16.0605 3.4395C15.7792 3.15829 15.3977 3.00032 15 3.00032C14.6023 3.00032 14.2208 3.15829 13.9395 3.4395L3.4395 13.9395C3.16626 14.2224 3.01507 14.6013 3.01849 14.9946C3.02191 15.3879 3.17966 15.7641 3.45777 16.0422C3.73588 16.3203 4.1121 16.4781 4.5054 16.4815C4.89869 16.4849 5.2776 16.3337 5.5605 16.0605L6 15.621V25.5C6 25.8978 6.15804 26.2794 6.43934 26.5607C6.72065 26.842 7.10218 27 7.5 27H10.5C10.8978 27 11.2794 26.842 11.5607 26.5607C11.842 26.2794 12 25.8978 12 25.5V22.5C12 22.1022 12.158 21.7206 12.4393 21.4393C12.7206 21.158 13.1022 21 13.5 21H16.5C16.8978 21 17.2794 21.158 17.5607 21.4393C17.842 21.7206 18 22.1022 18 22.5V25.5C18 25.8978 18.158 26.2794 18.4393 26.5607C18.7206 26.842 19.1022 27 19.5 27H22.5C22.8978 27 23.2794 26.842 23.5607 26.5607C23.842 26.2794 24 25.8978 24 25.5V15.621L24.4395 16.0605C24.7224 16.3337 25.1013 16.4849 25.4946 16.4815C25.8879 16.4781 26.2641 16.3203 26.5422 16.0422C26.8203 15.7641 26.9781 15.3879 26.9815 14.9946C26.9849 14.6013 26.8337 14.2224 26.5605 13.9395L16.0605 3.4395Z" fill="#4FD8E0"/>
</svg>
