<svg width="30" height="30" viewBox="0 0 30 30" fill="none" xmlns="http://www.w3.org/2000/svg">
<path d="M15 3C12.6131 3 10.3239 3.94821 8.63609 5.63604C6.94826 7.32387 6.00005 9.61305 6.00005 12V17.379L4.93955 18.4395C4.72983 18.6493 4.58702 18.9165 4.52917 19.2075C4.47132 19.4984 4.50102 19.7999 4.61453 20.074C4.72803 20.348 4.92024 20.5823 5.16686 20.7471C5.41347 20.9119 5.70342 20.9999 6.00005 21H24C24.2967 20.9999 24.5866 20.9119 24.8332 20.7471C25.0798 20.5823 25.2721 20.348 25.3856 20.074C25.4991 19.7999 25.5288 19.4984 25.4709 19.2075C25.4131 18.9165 25.2703 18.6493 25.0605 18.4395L24 17.379V12C24 9.61305 23.0518 7.32387 21.364 5.63604C19.6762 3.94821 17.387 3 15 3ZM15 27C13.8066 27 12.662 26.5259 11.8181 25.682C10.9742 24.8381 10.5 23.6935 10.5 22.5H19.5C19.5 23.6935 19.0259 24.8381 18.182 25.682C17.3381 26.5259 16.1935 27 15 27Z" fill="#F1F1F1"/>
</svg>
