<svg width="30" height="30" viewBox="0 0 30 30" fill="none" xmlns="http://www.w3.org/2000/svg">
<path d="M15.007 5.16136C18.2152 5.16136 18.5951 5.17542 19.8568 5.23169C21.0293 5.28326 21.6625 5.48017 22.0846 5.64427C22.6428 5.85993 23.0461 6.12248 23.4636 6.53975C23.8857 6.96171 24.1436 7.36023 24.3594 7.91815C24.5236 8.34011 24.7205 8.97773 24.7721 10.1451C24.8284 11.411 24.8425 11.7908 24.8425 14.993C24.8425 18.1998 24.8284 18.5796 24.7721 19.8408C24.7205 21.0129 24.5236 21.6458 24.3594 22.0678C24.1436 22.6257 23.881 23.0289 23.4636 23.4462C23.0414 23.8681 22.6428 24.126 22.0846 24.3417C21.6625 24.5058 21.0246 24.7027 19.8568 24.7542C18.5904 24.8105 18.2105 24.8246 15.007 24.8246C11.7989 24.8246 11.419 24.8105 10.1573 24.7542C8.98476 24.7027 8.35157 24.5058 7.92945 24.3417C7.37131 24.126 6.96795 23.8635 6.55052 23.4462C6.1284 23.0242 5.87043 22.6257 5.65468 22.0678C5.49052 21.6458 5.29353 21.0082 5.24194 19.8408C5.18566 18.5749 5.17159 18.1952 5.17159 14.993C5.17159 11.7861 5.18566 11.4063 5.24194 10.1451C5.29353 8.97304 5.49052 8.34011 5.65468 7.91815C5.87043 7.36023 6.13309 6.95702 6.55052 6.53975C6.97264 6.1178 7.37131 5.85993 7.92945 5.64427C8.35157 5.48017 8.98945 5.28326 10.1573 5.23169C11.419 5.17542 11.7989 5.16136 15.007 5.16136ZM15.007 3C11.7473 3 11.3393 3.01407 10.0588 3.07033C8.78308 3.12659 7.906 3.33288 7.14618 3.62825C6.35353 3.93768 5.68282 4.34558 5.01681 5.01602C4.3461 5.68177 3.93805 6.35222 3.62849 7.13987C3.33301 7.90408 3.12664 8.77613 3.07035 10.0514C3.01407 11.336 3 11.7439 3 15.0023C3 18.2608 3.01407 18.6687 3.07035 19.9486C3.12664 21.2239 3.33301 22.1006 3.62849 22.8601C3.93805 23.6525 4.3461 24.3229 5.01681 24.9887C5.68282 25.6544 6.35353 26.067 7.14149 26.3718C7.906 26.6671 8.77839 26.8734 10.0541 26.9297C11.3346 26.9859 11.7426 27 15.0023 27C18.2621 27 18.6701 26.9859 19.9506 26.9297C21.2263 26.8734 22.1034 26.6671 22.8632 26.3718C23.6512 26.067 24.3219 25.6544 24.9879 24.9887C25.6539 24.3229 26.0666 23.6525 26.3715 22.8648C26.667 22.1006 26.8734 21.2286 26.9296 19.9533C26.9859 18.6734 27 18.2655 27 15.007C27 11.7486 26.9859 11.3407 26.9296 10.0608C26.8734 8.78551 26.667 7.90877 26.3715 7.14925C26.076 6.35222 25.668 5.68177 24.9973 5.01602C24.3313 4.35026 23.6605 3.93768 22.8726 3.63294C22.1081 3.33757 21.2357 3.13128 19.9599 3.07501C18.6748 3.01407 18.2668 3 15.007 3Z" fill="white"/>
<path d="M15.007 8.83708C11.6019 8.83708 8.83936 11.5986 8.83936 15.0023C8.83936 18.4061 11.6019 21.1676 15.007 21.1676C18.4122 21.1676 21.1747 18.4061 21.1747 15.0023C21.1747 11.5986 18.4122 8.83708 15.007 8.83708ZM15.007 19.0016C12.7979 19.0016 11.0062 17.2106 11.0062 15.0023C11.0062 12.7941 12.7979 11.0031 15.007 11.0031C17.2161 11.0031 19.0078 12.7941 19.0078 15.0023C19.0078 17.2106 17.2161 19.0016 15.007 19.0016Z" fill="white"/>
<path d="M22.8585 8.59323C22.8585 9.39026 22.2113 10.0326 21.4186 10.0326C20.6213 10.0326 19.9787 9.38557 19.9787 8.59323C19.9787 7.7962 20.626 7.15388 21.4186 7.15388C22.2113 7.15388 22.8585 7.80089 22.8585 8.59323Z" fill="white"/>
</svg>
