<svg width="30" height="30" viewBox="0 0 30 30" fill="none" xmlns="http://www.w3.org/2000/svg">
<path d="M26.7609 10.6422C26.7609 10.6422 26.5266 8.9875 25.8047 8.26094C24.8906 7.30469 23.8688 7.3 23.4 7.24375C20.0438 7 15.0047 7 15.0047 7H14.9953C14.9953 7 9.95625 7 6.6 7.24375C6.13125 7.3 5.10938 7.30469 4.19531 8.26094C3.47344 8.9875 3.24375 10.6422 3.24375 10.6422C3.24375 10.6422 3 12.5875 3 14.5281V16.3469C3 18.2875 3.23906 20.2328 3.23906 20.2328C3.23906 20.2328 3.47344 21.8875 4.19062 22.6141C5.10469 23.5703 6.30469 23.5375 6.83906 23.6406C8.76094 23.8234 15 23.8797 15 23.8797C15 23.8797 20.0438 23.8703 23.4 23.6313C23.8688 23.575 24.8906 23.5703 25.8047 22.6141C26.5266 21.8875 26.7609 20.2328 26.7609 20.2328C26.7609 20.2328 27 18.2922 27 16.3469V14.5281C27 12.5875 26.7609 10.6422 26.7609 10.6422ZM12.5203 18.5547V11.8094L19.0031 15.1937L12.5203 18.5547Z" fill="white"/>
</svg>
