<svg width="431" height="22" viewBox="0 0 431 22" fill="none" xmlns="http://www.w3.org/2000/svg">
<path d="M149.167 18.6667L145.833 15.3333M140.833 15.3333V5.33333V15.3333ZM140.833 5.33333L137.5 8.66666L140.833 5.33333ZM140.833 5.33333L144.167 8.66666L140.833 5.33333ZM149.167 8.66666V18.6667V8.66666ZM149.167 18.6667L152.5 15.3333L149.167 18.6667Z" stroke="#F1F1F1" stroke-width="2" stroke-linecap="round" stroke-linejoin="round"/>
<path d="M6.66667 9.99999H6.675H6.66667ZM10 9.99999H10.0083H10ZM13.3333 9.99999H13.3417H13.3333ZM17.5 9.99999C17.5 13.6817 14.1417 16.6667 10 16.6667C8.77386 16.6708 7.56233 16.4006 6.45417 15.8758L2.5 16.6667L3.6625 13.5667C2.92667 12.535 2.5 11.3117 2.5 9.99999C2.5 6.31833 5.85833 3.33333 10 3.33333C14.1417 3.33333 17.5 6.31833 17.5 9.99999Z" stroke="#F1F1F1" stroke-width="2" stroke-linecap="round" stroke-linejoin="round"/>
<path d="M415.167 6.16667C415.167 5.72464 415.342 5.30072 415.655 4.98816C415.967 4.67559 416.391 4.5 416.833 4.5H425.167C425.609 4.5 426.033 4.67559 426.345 4.98816C426.658 5.30072 426.833 5.72464 426.833 6.16667V19.5L421 16.5833L415.167 19.5V6.16667Z" stroke="#F1F1F1" stroke-width="2" stroke-linecap="round" stroke-linejoin="round"/>
<path d="M274.598 7.26501C274.25 7.61323 273.974 8.02663 273.785 8.4816C273.597 8.93657 273.5 9.42421 273.5 9.91667C273.5 10.4091 273.597 10.8968 273.785 11.3517C273.974 11.8067 274.25 12.2201 274.598 12.5683L281 18.97L287.402 12.5683C288.105 11.8651 288.5 10.9112 288.5 9.91667C288.5 8.92211 288.105 7.96827 287.402 7.26501C286.698 6.56174 285.745 6.16665 284.75 6.16665C283.755 6.16665 282.802 6.56174 282.098 7.26501L281 8.36334L279.902 7.26501C279.553 6.91678 279.14 6.64056 278.685 6.4521C278.23 6.26364 277.742 6.16664 277.25 6.16664C276.758 6.16664 276.27 6.26364 275.815 6.4521C275.36 6.64056 274.947 6.91678 274.598 7.26501V7.26501Z" stroke="#F1F1F1" stroke-width="2" stroke-linecap="round" stroke-linejoin="round"/>
</svg>
