<svg width="18" height="18" viewBox="0 0 18 18" fill="none" xmlns="http://www.w3.org/2000/svg">
<g clip-path="url(#clip0_5_619)">
<path d="M9 0C7.21997 0 5.47991 0.527841 3.99987 1.51677C2.51983 2.50571 1.36628 3.91131 0.685088 5.55585C0.00389957 7.20038 -0.17433 9.00998 0.172937 10.7558C0.520204 12.5016 1.37737 14.1053 2.63604 15.364C3.89472 16.6226 5.49836 17.4798 7.24419 17.8271C8.99002 18.1743 10.7996 17.9961 12.4442 17.3149C14.0887 16.6337 15.4943 15.4802 16.4832 14.0001C17.4722 12.5201 18 10.78 18 9C17.9974 6.61384 17.0484 4.32616 15.3611 2.63889C13.6738 0.951621 11.3862 0.00258081 9 0V0ZM9 15.75C7.66498 15.75 6.35994 15.3541 5.2499 14.6124C4.13987 13.8707 3.27471 12.8165 2.76382 11.5831C2.25293 10.3497 2.11925 8.99251 2.3797 7.68314C2.64015 6.37377 3.28303 5.17103 4.22703 4.22703C5.17104 3.28302 6.37377 2.64015 7.68314 2.3797C8.99252 2.11925 10.3497 2.25292 11.5831 2.76381C12.8165 3.2747 13.8707 4.13987 14.6124 5.2499C15.3541 6.35993 15.75 7.66498 15.75 9C15.748 10.7896 15.0362 12.5053 13.7708 13.7708C12.5053 15.0362 10.7896 15.748 9 15.75Z" fill="#4FD8E0"/>
<path d="M9.00391 14.2502C9.62523 14.2502 10.1289 13.7466 10.1289 13.1252C10.1289 12.5039 9.62523 12.0002 9.00391 12.0002C8.38259 12.0002 7.87891 12.5039 7.87891 13.1252C7.87891 13.7466 8.38259 14.2502 9.00391 14.2502Z" fill="#4FD8E0"/>
<path d="M9.56793 3.73997C9.10917 3.65772 8.63795 3.67708 8.18748 3.79668C7.73701 3.91628 7.31825 4.13321 6.96071 4.43219C6.60316 4.73116 6.31554 5.10491 6.11809 5.5271C5.92064 5.94929 5.81818 6.40964 5.81793 6.87571C5.81793 7.17408 5.93646 7.46023 6.14744 7.67121C6.35841 7.88218 6.64456 8.00071 6.94293 8.00071C7.2413 8.00071 7.52745 7.88218 7.73842 7.67121C7.9494 7.46023 8.06793 7.17408 8.06793 6.87571C8.06861 6.71066 8.11292 6.54873 8.19637 6.40633C8.27982 6.26393 8.39944 6.14613 8.5431 6.06487C8.68676 5.98361 8.84936 5.94179 9.0144 5.94364C9.17944 5.94548 9.34105 5.99094 9.48286 6.07539C9.62466 6.15985 9.74162 6.2803 9.82186 6.42453C9.9021 6.56876 9.94277 6.73165 9.93976 6.89667C9.93675 7.06169 9.89015 7.22298 9.8047 7.36419C9.71924 7.50539 9.59797 7.62149 9.45318 7.70071C8.9891 7.89508 8.59472 8.22535 8.3219 8.6481C8.04908 9.07085 7.9106 9.56627 7.92468 10.0692C7.92468 10.3676 8.0432 10.6537 8.25418 10.8647C8.46516 11.0757 8.75131 11.1942 9.04968 11.1942C9.34804 11.1942 9.63419 11.0757 9.84517 10.8647C10.0561 10.6537 10.1747 10.3676 10.1747 10.0692C10.174 10.0145 10.178 9.95976 10.1867 9.90571C10.2917 9.80984 10.4109 9.73066 10.5399 9.67096C11.1161 9.35339 11.5798 8.86527 11.8674 8.27361C12.155 7.68195 12.2524 7.01576 12.1462 6.36653C12.04 5.71729 11.7355 5.11685 11.2744 4.64763C10.8133 4.17842 10.2182 3.86345 9.57093 3.74597L9.56793 3.73997Z" fill="#4FD8E0"/>
</g>
<defs>
<clipPath id="clip0_5_619">
<rect width="18" height="18" fill="white"/>
</clipPath>
</defs>
</svg>
