<svg width="18" height="16" viewBox="0 0 18 16" fill="none" xmlns="http://www.w3.org/2000/svg">
<path fill-rule="evenodd" clip-rule="evenodd" d="M10.1339 1.17002C9.72806 -0.390006 7.35738 -0.390006 6.95159 1.17002C6.89101 1.40444 6.77218 1.62215 6.60477 1.80544C6.43736 1.98873 6.22611 2.13241 5.9882 2.2248C5.75029 2.31719 5.49245 2.35568 5.23566 2.33713C4.97887 2.31857 4.73039 2.2435 4.51043 2.11803C3.04531 1.28202 1.36875 2.85204 2.26149 4.22406C2.83814 5.11008 2.32663 6.2661 1.25021 6.5111C-0.416738 6.89011 -0.416738 9.11114 1.25021 9.48915C1.50061 9.54595 1.73313 9.65733 1.92886 9.81422C2.12458 9.97111 2.27798 10.1691 2.37654 10.392C2.47511 10.6149 2.51606 10.8564 2.49607 11.097C2.47608 11.3375 2.3957 11.5702 2.26149 11.7762C1.36875 13.1482 3.04531 14.7182 4.51043 13.8822C4.73035 13.7565 4.97885 13.6813 5.23571 13.6625C5.49257 13.6438 5.75052 13.6822 5.98856 13.7745C6.2266 13.8668 6.43799 14.0104 6.60552 14.1937C6.77306 14.377 6.892 14.5947 6.95266 14.8292C7.35738 16.3903 9.72913 16.3903 10.1328 14.8292C10.1937 14.5949 10.3127 14.3773 10.4803 14.1941C10.6478 14.0109 10.8592 13.8674 11.0972 13.7751C11.3351 13.6828 11.593 13.6444 11.8498 13.6631C12.1066 13.6817 12.355 13.7568 12.575 13.8822C14.0401 14.7182 15.7167 13.1482 14.824 11.7762C14.69 11.5702 14.6098 11.3375 14.5899 11.097C14.5701 10.8566 14.6111 10.6151 14.7096 10.3922C14.8081 10.1694 14.9614 9.97148 15.157 9.81456C15.3526 9.65763 15.585 9.54614 15.8352 9.48915C17.5022 9.11014 17.5022 6.8891 15.8352 6.5111C15.5848 6.45429 15.3523 6.34291 15.1566 6.18602C14.9609 6.02913 14.8075 5.83118 14.7089 5.60827C14.6103 5.38536 14.5694 5.1438 14.5894 4.90326C14.6094 4.66272 14.6897 4.43001 14.824 4.22406C15.7167 2.85204 14.0401 1.28202 12.575 2.11803C12.3551 2.24372 12.1066 2.31898 11.8497 2.33771C11.5929 2.35643 11.3349 2.31808 11.0969 2.22577C10.8588 2.13347 10.6475 1.98983 10.4799 1.80654C10.3124 1.62325 10.1934 1.4055 10.1328 1.17102L10.1339 1.17002ZM8.54272 11.0002C9.39237 11.0002 10.2072 10.6841 10.808 10.1215C11.4088 9.55886 11.7463 8.79578 11.7463 8.00012C11.7463 7.20446 11.4088 6.44139 10.808 5.87877C10.2072 5.31615 9.39237 5.00008 8.54272 5.00008C7.69307 5.00008 6.87822 5.31615 6.27742 5.87877C5.67662 6.44139 5.3391 7.20446 5.3391 8.00012C5.3391 8.79578 5.67662 9.55886 6.27742 10.1215C6.87822 10.6841 7.69307 11.0002 8.54272 11.0002Z" fill="#F1F1F1"/>
</svg>
